# xmcd
#
# Track frame offsets:
#        150
#        13596
#        27866
#        37510
#        48366
#        61931
#        77490
#        88317
#        101688
#        118057
#        128851
#        150317
#        160391
#        178739
#        185626
#        202353
#        223725
#        234879
#        249150
#        260898
#        274093
#        286922
#        305872
#        330030
#
# Disc length: 4616 seconds
#
# Revision: 0
# Processed by: cddbd v1.5.1PL0 Copyright (c) Steve Scherf et al.
# Submitted via: ExactAudioCopy v0.95a4
#
DISCID=4d120618
DTITLE=Various Artist - QUAKE TRANCE BEST.5
DYEAR=2004
DGENRE=Trance
TTITLE0=CASCADA - BAD BOY (CLUB MIX)
TTITLE1=ZIGGY X - THIZ ROX (SINGLE MIX)
TTITLE2=DJ SHOG - LIVE 4 MUSIC (MEGARA VS. DJ LEE REMIX)
TTITLE3=NEO CORTEX - ELEMENTS 2004 (ORIGINAL VOCAL CLUB MIX)
TTITLE4=MARIO LOPEZ - SOUND OF THE CITY (NATURE 2.4) (BAD BOYZ DJ TEAM
TTITLE4=CLUB MIX)
TTITLE5=ALEX B. MEETS JOHN P - ENJOY YOUR DREAMS (NOEMI REMIX)
TTITLE6=DJ COSMO MEETS DIGITAL ROCKERS - LOVE SONG (GROOVE COVERAGE RE
TTITLE6=MIX)
TTITLE7=PULSEDRIVER - SLAMMIN (VOCAL MIX)
TTITLE8=T90 - CAN'T STOP TO FOLLOW (ORIGINAL MIX)
TTITLE9=FLOORFILLER - TECHNOROMANCE (PULSEDRIVER REMIX)
TTITLE10=MYSTERIO - FADING LIKE A FLOWER (ORIGINAL CLUB MIX)
TTITLE11=SVEN-R-G VS. BASS-T PRESENT DJ UTO - ON THE PARTY TRIP (VOCAL
TTITLE11=MIX)
TTITLE12=ALEX M. VS MARC VAN DAMME - TECHNODISCO (ROB MAYTH RMX)
TTITLE13=JENS O. and MARCO KUBIK - AND BACK (CLUB MIX)
TTITLE14=ANACONDA - SOUND OF LOVE (PA PA PA) (ZIGGY X REMIX)
TTITLE15=LICHTENFELS - B-BOYS FLY GIRLS (ORIGINAL MIX)
TTITLE16=BEATHEADZ (HANDE HOCH) - RAZZIA (EXTENDED MIX)
TTITLE17=KLUBBHOPPERS - MAKE MY BODY (INDURRO REMIX)
TTITLE18=STONIE - TURNTABLES TURN (CLUB MIX)
TTITLE19=DIGITAL ROCKERS - I BELIEVE (CLUB VERSION)
TTITLE20=BERLIN - TAKE MY BREATH AWAY 2004 (S.A.D. FULL VOCAL MIX)
TTITLE21=ACCUFACE - YOUR DESTINATION (ALEX MEGANE CLUB MIX)
TTITLE22=MIKE KOGLIN VS. DJ UTO - YOAKE (MIKE KOGLIN REMIX)
TTITLE23=APOLLO - IN MY DREAMS (SINGLE MIX)
EXTD=
EXTT0=
EXTT1=
EXTT2=
EXTT3=
EXTT4=
EXTT5=
EXTT6=
EXTT7=
EXTT8=
EXTT9=
EXTT10=
EXTT11=
EXTT12=
EXTT13=
EXTT14=
EXTT15=
EXTT16=
EXTT17=
EXTT18=
EXTT19=
EXTT20=
EXTT21=
EXTT22=
EXTT23=
PLAYORDER=
